{"title":"The Snakes 1998-03-27 Live at Grand Bar, Arendal, Norway DVD PAL","uid":6545748,"size":4547353544,"categoryP":"video","categoryS":"music_videos","magnet":"?xt=urn:btih:3444c2f3ebd9e4225c524792346ab8b52b53ce15&amp;dn=The+Snakes+1998-03-27+Live+at+Grand+Bar%2C+Arendal%2C+Norway+DVD+PAL&amp;tr=udp%3A%2F%2Ftracker.openbittorrent.com%3A80&amp;tr=udp%3A%2F%2Fopen.demonii.com%3A1337&amp;tr=udp%3A%2F%2Ftracker.coppersurfer.tk%3A6969&amp;tr=udp%3A%2F%2Fexodus.desync.com%3A6969","seeders":1,"leechers":1,"uploader":"thumbsplus","files":14,"time":1310848954,"description":"THE SNAKES - LIVE IN NORWAY 1998\n\nJORN LANDE, MICKY MOODY, BERNIE MARSDEN\nTHE SNAKES LIVE AT GRAND BAR ARENDAL, NORWAY 27.03.1998\nAUDIENCE SHOT - 95 MINUTES\n\nPAL\n\n\n\n1. Sweet Talker\n2. Walkin' in the shadow of the blues\n3. Trouble\n4. Slow n'easy\n5. Don't break my heart again\n6. Ready and Willing\n7. Cryin' in the rain\n8. Young Blood\n9. Lovehunter\n10. Ain't No Love in the heart of the city\n11. Fool for your loving\n12. Wine Women An'Song\n13. Here I Go Again\n\nBernie Marsden (Guitar)\nMicky Moody (Guitar)\nJorn Lande (Vocal)\nSid Ringsby (Bass)\nWilly Bendsiksen (Drums)\n\nI canÃ‚Â´t seed 24/7\nMy upload speed is low, please be patient\n\n\nthe dvd has a menu\n\nGeneral\nComplete name : F:\\marsden\\VTS_01_0.IFO\nFormat : DVD Video\nFormat profile : Program\nFile size : 64.0 KiB\nDuration : 1h 34mn\nOverall bit rate : 92 bps\n\nVideo\nID : 224 (0xE0)\nFormat : MPEG Video\nFormat version : Version 2\nDuration : 1h 34mn\nBit rate mode : Variable\nWidth : 720 pixels\nHeight : 576 pixels\nDisplay aspect ratio : 4:3\nFrame rate : 25.000 fps\nStandard : PAL\nCompression mode : Lossy\n\nAudio\nID : 0 (0x0)\nFormat : MPEG Audio\nFormat profile : Version 1\nDuration : 1h 34mn\nChannel(s) : 2 channels\nSampling rate : 48.0 KHz\nCompression mode : Lossy\n\nMenu\nDuration : 1h 34mn\n00:00:00.000 : Chapter 1\n00:05:55.920 : Chapter 2\n00:11:46.880 : Chapter 3\n00:18:00.360 : Chapter 4\n00:25:18.240 : Chapter 5\n00:31:07.520 : Chapter 6\n00:39:34.040 : Chapter 7\n00:48:12.440 : Chapter 8\n00:53:14.480 : Chapter 9\n01:05:59.440 : Chapter 10\n01:14:54.600 : Chapter 11\n01:21:30.320 : Chapter 12\n01:27:25.240 : Chapter 13\n\nvts_01.1.vob\n\nGeneral\nComplete name : F:\\marsden\\VTS_01_1.VOB\nFormat : MPEG-PS\nFile size : 1 024 MiB\nDuration : 22mn 39s\nOverall bit rate : 6 319 Kbps\n\nVideo\nID : 224 (0xE0)\nFormat : MPEG Video\nFormat version : Version 2\nFormat profile : Main@Main\nFormat settings, BVOP : Yes\nFormat settings, Matrix : Default\nFormat settings, GOP : M=3, N=12\nDuration : 22mn 39s\nBit rate mode : Variable\nBit rate : 5 970 Kbps\nNominal bit rate : 8 500 Kbps\nWidth : 720 pixels\nHeight : 576 pixels\nDisplay aspect ratio : 4:3\nFrame rate : 25.000 fps\nStandard : PAL\nColor space : YUV\nChroma subsampling : 4:2:0\nBit depth : 8 bits\nScan type : Interlaced\nScan order : Top Field First\nCompression mode : Lossy\nBits/(Pixel*Frame) : 0.576\nStream size : 967 MiB (94%)\n\nAudio\nID : 192 (0xC0)\nFormat : MPEG Audio\nFormat version : Version 1\nFormat profile : Layer 2\nDuration : 22mn 39s\nBit rate mode : Constant\nBit rate : 224 Kbps\nChannel(s) : 2 channels\nSampling rate : 48.0 KHz\nCompression mode : Lossy\nStream size : 36.3 MiB (4%)\n\n\nQuote:\nThe Snakes were formed by Whitesnake guitarists Bernie Marsden and Micky Moody, exclusively performing Whitesnake songs. Initially, the project was called 'Saints and Sinners' and was to feature other former Whitesnake band mates including, bassist Neil Murray and drummer Cozy Powell plus American vocalist John West but this never materialised. During August 1998, the Once Bitten album was released in Japan on the Pony Canyon label. Former Vagabond vocalist JÃƒÂ¸rn Lande was drafted in and TNT guitarist Ronni Le TekrÃƒÂ¸ produced the band. TNT's touring keyboard player Dag Stokke engineered the album. A live album Live in Europe was released in December 1998, with recordings of live performances of Whitesnake songs.","torrent":{"xt":"urn:btih:3444c2f3ebd9e4225c524792346ab8b52b53ce15","amp;dn":"The+Snakes+1998-03-27+Live+at+Grand+Bar%2C+Arendal%2C+Norway+DVD+PAL","amp;tr":["udp%3A%2F%2Ftracker.openbittorrent.com%3A80","udp%3A%2F%2Fopen.demonii.com%3A1337","udp%3A%2F%2Ftracker.coppersurfer.tk%3A6969","udp%3A%2F%2Fexodus.desync.com%3A6969"],"infoHash":"3444c2f3ebd9e4225c524792346ab8b52b53ce15","infoHashBuffer":{"type":"Buffer","data":[52,68,194,243,235,217,228,34,92,82,71,146,52,106,184,181,43,83,206,21]},"announce":[],"urlList":[]}}